<svg xmlns="http://www.w3.org/2000/svg" xmlns:xlink="http://www.w3.org/1999/xlink" width="500" zoomAndPan="magnify" viewBox="0 0 375 374.999991" height="500" preserveAspectRatio="xMidYMid meet" version="1.0"><defs><clipPath id="fff3087bfa"><path d="M 0.691406 1.382812 L 374.191406 1.382812 L 374.191406 374.882812 L 0.691406 374.882812 Z M 0.691406 1.382812 " clip-rule="nonzero"/></clipPath><clipPath id="d6109b454a"><path d="M 88.167969 94.273438 L 286.917969 94.273438 L 286.917969 280.707031 L 88.167969 280.707031 Z M 88.167969 94.273438 " clip-rule="nonzero"/></clipPath></defs><rect x="-37.5" width="450" fill="#ffffff" y="-37.499999" height="449.999989" fill-opacity="1"/><rect x="-37.5" width="450" fill="#ffffff" y="-37.499999" height="449.999989" fill-opacity="1"/><rect x="-37.5" width="450" fill="#ffffff" y="-37.499999" height="449.999989" fill-opacity="1"/><g clip-path="url(#fff3087bfa)"><path fill="#000000" d="M 187.476562 1.382812 C 84.554688 1.382812 0.828125 85.160156 0.828125 188.132812 C 0.828125 291.101562 84.554688 374.882812 187.476562 374.882812 C 290.398438 374.882812 374.125 291.101562 374.125 188.132812 C 374.125 85.160156 290.398438 1.382812 187.476562 1.382812 Z M 310.066406 310.777344 C 294.152344 326.699219 275.609375 339.203125 254.953125 347.957031 C 233.59375 356.996094 210.890625 361.578125 187.476562 361.578125 C 164.066406 361.578125 141.359375 356.996094 120 347.957031 C 99.34375 339.203125 80.800781 326.699219 64.886719 310.777344 C 48.964844 294.851562 36.464844 276.296875 27.71875 255.644531 C 18.683594 234.28125 14.109375 211.566406 14.109375 188.132812 C 14.109375 164.695312 18.683594 141.96875 27.71875 120.609375 C 36.464844 99.941406 48.96875 81.398438 64.886719 65.484375 C 80.800781 49.5625 99.34375 37.035156 120 28.304688 C 162.664062 10.226562 212.285156 10.226562 254.953125 28.304688 C 275.609375 37.035156 294.152344 49.5625 310.066406 65.484375 C 325.996094 81.410156 338.492188 99.964844 347.234375 120.609375 C 356.273438 141.980469 360.851562 164.695312 360.851562 188.132812 C 360.851562 211.554688 356.273438 234.269531 347.234375 255.644531 C 338.5 276.296875 325.996094 294.851562 310.066406 310.777344 Z M 310.066406 310.777344 " fill-opacity="1" fill-rule="nonzero"/></g><g clip-path="url(#d6109b454a)"><path stroke-linecap="butt" transform="matrix(0.000000000000000242, -3.948203, 3.949818, 0.000000000000000242, 88.798681, 288.919258)" fill="none" stroke-linejoin="miter" d="M 31.999653 49.999867 L 31.999653 43.699141 L 35.102331 43.897924 C 39.399182 44.300435 42.999515 40.89838 42.999515 36.601307 L 42.999515 31.198566 L 46.999554 29.198869 C 47.897906 28.69944 48.198676 27.600695 47.699042 26.698754 L 42.999515 18.60206 C 41.898341 9.300802 36.99995 1.00038 23.000306 1.00038 C 8.999673 1.00038 3.000109 10.500422 3.000109 21.000312 C 3.000109 25.199476 4.301136 29.10195 6.499525 32.301267 C 8.698904 35.499595 9.999931 39.301194 9.999931 43.198723 L 9.999931 49.999867 " stroke="#000000" stroke-width="2" stroke-opacity="1" stroke-miterlimit="4"/></g></svg>