<svg xmlns="http://www.w3.org/2000/svg" xmlns:xlink="http://www.w3.org/1999/xlink" width="500" zoomAndPan="magnify" viewBox="0 0 375 374.999991" height="500" preserveAspectRatio="xMidYMid meet" version="1.0"><defs><clipPath id="4676803e88"><path d="M 51.5 65.144531 L 254 65.144531 L 254 269.191406 L 51.5 269.191406 Z M 51.5 65.144531 " clip-rule="nonzero"/></clipPath><clipPath id="2c68be2c7d"><path d="M 186 183 L 261 183 L 261 240 L 186 240 Z M 186 183 " clip-rule="nonzero"/></clipPath><clipPath id="75ab21306d"><path d="M 323.089844 199.320312 L 314.804688 239.09375 L 159.335938 206.703125 L 167.621094 166.929688 Z M 323.089844 199.320312 " clip-rule="nonzero"/></clipPath><clipPath id="eb4828269d"><path d="M 323.089844 199.320312 L 295.410156 332.191406 L 139.941406 299.800781 L 167.621094 166.929688 Z M 323.089844 199.320312 " clip-rule="nonzero"/></clipPath><clipPath id="c6a61d69a5"><path d="M 217 269.226562 L 273 269.226562 L 273 309 L 217 309 Z M 217 269.226562 " clip-rule="nonzero"/></clipPath><clipPath id="2d95285b91"><path d="M 0.691406 1.382812 L 374.191406 1.382812 L 374.191406 374.882812 L 0.691406 374.882812 Z M 0.691406 1.382812 " clip-rule="nonzero"/></clipPath></defs><rect x="-37.5" width="450" fill="#ffffff" y="-37.499999" height="449.999989" fill-opacity="1"/><rect x="-37.5" width="450" fill="#ffffff" y="-37.499999" height="449.999989" fill-opacity="1"/><rect x="-37.5" width="450" fill="#ffffff" y="-37.499999" height="449.999989" fill-opacity="1"/><g clip-path="url(#4676803e88)"><path fill="#000000" d="M 198.242188 269.191406 C 217.726562 269.191406 234.765625 264.257812 247.511719 254.941406 C 253.6875 250.457031 255.160156 241.199219 250.746094 234.746094 C 248.273438 231.085938 244.285156 228.894531 240.070312 228.894531 C 237.515625 228.894531 235.039062 229.679688 232.925781 231.167969 C 223.957031 237.394531 211.316406 240.96875 198.238281 240.96875 C 170.96875 240.96875 151.726562 221.265625 147.695312 189.484375 C 155.636719 179.867188 160.5 167.273438 160.5 153.429688 L 157.101562 68.410156 C 157.027344 66.535156 155.445312 65.074219 153.566406 65.148438 C 151.691406 65.222656 150.171875 66.804688 150.304688 68.683594 L 153.703125 153.566406 C 153.703125 179.375 133.457031 201.179688 109.492188 201.179688 L 55.078125 201.179688 C 53.199219 201.179688 51.679688 202.699219 51.679688 204.578125 C 51.679688 206.460938 53.199219 207.980469 55.078125 207.980469 L 109.492188 207.980469 C 112.222656 207.980469 114.886719 207.683594 117.503906 207.242188 C 129.179688 244.414062 161.21875 269.195312 198.238281 269.195312 Z M 124.140625 205.667969 C 130.652344 203.578125 136.625 200.152344 141.757812 195.660156 C 147.710938 227.542969 169.304688 247.765625 198.242188 247.765625 C 212.671875 247.765625 226.730469 243.75 236.820312 236.738281 C 237.785156 236.066406 238.941406 235.691406 240.074219 235.691406 C 242.019531 235.691406 243.90625 236.757812 245.121094 238.566406 C 247.488281 242.023438 246.730469 247.097656 243.5 249.441406 C 231.925781 257.910156 216.269531 262.390625 198.238281 262.390625 C 164.386719 262.390625 135.035156 239.714844 124.136719 205.667969 Z M 57.34375 135.703125 C 55.941406 136.949219 53.789062 136.824219 52.546875 135.421875 C 51.96875 134.773438 51.6875 133.964844 51.6875 133.164062 C 51.6875 132.226562 52.070312 131.292969 52.828125 130.621094 C 65.503906 119.359375 79.550781 115.582031 93.460938 119.699219 L 106.921875 123.0625 C 108.746094 123.515625 109.855469 125.359375 109.398438 127.183594 C 108.941406 129.007812 107.09375 130.113281 105.277344 129.660156 L 91.671875 126.257812 C 76.957031 121.90625 64.898438 128.996094 57.34375 135.703125 Z M 57.34375 135.703125 " fill-opacity="1" fill-rule="nonzero"/></g><g clip-path="url(#2c68be2c7d)"><g clip-path="url(#75ab21306d)"><g clip-path="url(#eb4828269d)"><path fill="#000000" d="M 215.757812 191.886719 C 212.175781 192.597656 210.191406 187.480469 213.890625 186.355469 C 225.820312 182.726562 238.398438 181.765625 250.34375 185.824219 C 254.320312 187.175781 253.328125 193.003906 248.988281 192.316406 C 237.960938 190.574219 226.785156 189.695312 215.757812 191.886719 Z M 256.914062 207.808594 C 261.132812 208.449219 262.515625 201.988281 258.265625 201.3125 C 246.589844 199.457031 234.09375 199.335938 223.027344 203.828125 C 220.347656 204.914062 220.835938 209.574219 224.074219 209.109375 C 235.128906 207.53125 245.757812 206.113281 256.914062 207.808594 Z M 241.515625 304.386719 C 235.730469 293.152344 219.511719 281.089844 206.414062 287.035156 C 204.027344 288.117188 203.847656 291.738281 206.734375 292.363281 C 212.296875 293.570312 217.988281 293.589844 223.285156 295.941406 C 228.875 298.421875 233.269531 302.527344 236.371094 307.742188 C 238.425781 311.203125 243.285156 307.828125 241.515625 304.386719 Z M 223.082031 316.125 C 225.976562 317.628906 228.195312 313.25 225.382812 311.65625 C 214.8125 305.664062 200.726562 299.992188 188.359375 301.835938 C 185.671875 302.234375 185.0625 306.207031 188.007812 306.804688 C 193.785156 307.96875 199.675781 308.109375 205.433594 309.457031 C 211.597656 310.941406 217.476562 313.164062 223.078125 316.125 Z M 223.082031 316.125 " fill-opacity="1" fill-rule="nonzero"/></g></g></g><g clip-path="url(#c6a61d69a5)"><path fill="#000000" d="M 266.011719 295.238281 C 269.375 293.8125 272.359375 298.414062 268.964844 300.273438 C 258.027344 306.257812 245.914062 309.761719 233.390625 308.226562 C 229.222656 307.714844 229.003906 301.804688 233.390625 301.59375 C 244.542969 301.050781 255.664062 299.628906 266.011719 295.238281 Z M 222.472656 288.046875 C 218.214844 288.277344 218.175781 294.882812 222.472656 294.679688 C 234.285156 294.117188 246.539062 291.683594 256.457031 285.03125 C 258.863281 283.417969 257.433594 278.957031 254.359375 280.070312 C 243.859375 283.871094 233.742188 287.425781 222.472656 288.046875 Z M 217.847656 190.355469 C 225.804688 200.171875 244.144531 208.671875 255.753906 200.183594 C 257.867188 198.636719 257.304688 195.054688 254.351562 195.03125 C 248.664062 194.984375 243.085938 196.125 237.417969 194.90625 C 231.441406 193.617188 226.304688 190.496094 222.203125 186.019531 C 219.484375 183.050781 215.414062 187.347656 217.851562 190.355469 Z M 233.503906 175.101562 C 230.363281 174.222656 229.082031 178.964844 232.164062 179.949219 C 243.734375 183.65625 258.675781 186.339844 270.410156 182.011719 C 272.960938 181.074219 272.746094 177.058594 269.738281 177.078125 C 263.847656 177.113281 258.050781 178.175781 252.136719 178.03125 C 245.804688 177.835938 239.59375 176.859375 233.503906 175.101562 Z M 233.503906 175.101562 " fill-opacity="1" fill-rule="nonzero"/></g><g clip-path="url(#2d95285b91)"><path fill="#000000" d="M 187.476562 1.382812 C 84.554688 1.382812 0.828125 85.160156 0.828125 188.132812 C 0.828125 291.101562 84.554688 374.882812 187.476562 374.882812 C 290.398438 374.882812 374.125 291.101562 374.125 188.132812 C 374.125 85.160156 290.398438 1.382812 187.476562 1.382812 Z M 310.066406 310.777344 C 294.152344 326.699219 275.609375 339.203125 254.953125 347.957031 C 233.59375 356.996094 210.890625 361.578125 187.476562 361.578125 C 164.066406 361.578125 141.359375 356.996094 120 347.957031 C 99.34375 339.203125 80.800781 326.699219 64.886719 310.777344 C 48.964844 294.851562 36.464844 276.296875 27.71875 255.644531 C 18.683594 234.28125 14.109375 211.566406 14.109375 188.132812 C 14.109375 164.695312 18.683594 141.96875 27.71875 120.609375 C 36.464844 99.941406 48.96875 81.398438 64.886719 65.484375 C 80.800781 49.5625 99.34375 37.035156 120 28.304688 C 162.664062 10.226562 212.285156 10.226562 254.953125 28.304688 C 275.609375 37.035156 294.152344 49.5625 310.066406 65.484375 C 325.996094 81.410156 338.492188 99.964844 347.234375 120.609375 C 356.273438 141.980469 360.851562 164.695312 360.851562 188.132812 C 360.851562 211.554688 356.273438 234.269531 347.234375 255.644531 C 338.5 276.296875 325.996094 294.851562 310.066406 310.777344 Z M 310.066406 310.777344 " fill-opacity="1" fill-rule="nonzero"/></g></svg>